<svg xmlns="http://www.w3.org/2000/svg" xmlns:xlink="http://www.w3.org/1999/xlink" width="940" zoomAndPan="magnify" viewBox="0 0 705 591.000005" height="788" preserveAspectRatio="xMidYMid meet" version="1.0"><defs><g/></defs><g fill="#d269e6" fill-opacity="1"><g transform="translate(-1.148615, 484.376446)"><g><path d="M 409.21875 -234.5625 L 409.21875 -143.6875 C 398.382812 -93.925781 374.691406 -56.269531 338.140625 -30.71875 C 301.585938 -5.164062 260.800781 7.609375 215.78125 7.609375 C 159.25 7.609375 111.097656 -13.539062 71.328125 -55.84375 C 31.554688 -98.15625 11.671875 -149.269531 11.671875 -209.1875 C 11.671875 -270.101562 31.132812 -321.546875 70.0625 -363.515625 C 108.988281 -405.492188 157.5625 -426.484375 215.78125 -426.484375 C 283.8125 -426.484375 337.628906 -402.617188 377.234375 -354.890625 L 314.78125 -286.359375 C 292.445312 -322.234375 261.304688 -340.171875 221.359375 -340.171875 C 191.910156 -340.171875 166.78125 -327.390625 145.96875 -301.828125 C 125.15625 -276.273438 114.75 -245.394531 114.75 -209.1875 C 114.75 -173.644531 125.15625 -143.265625 145.96875 -118.046875 C 166.78125 -92.828125 191.910156 -80.21875 221.359375 -80.21875 C 245.734375 -80.21875 266.972656 -87.578125 285.078125 -102.296875 C 303.191406 -117.023438 312.25 -136.578125 312.25 -160.953125 L 215.78125 -160.953125 L 215.78125 -234.5625 Z M 409.21875 -234.5625 "/></g></g></g><g fill="#d269e6" fill-opacity="1"><g transform="translate(403.503445, 484.376446)"><g><path d="M 4.0625 -335.09375 L 4.0625 -418.875 L 298.53125 -418.875 L 298.53125 -335.09375 L 199.03125 -335.09375 L 199.03125 0 L 103.578125 0 L 103.578125 -335.09375 Z M 4.0625 -335.09375 "/></g></g></g></svg>