<svg xmlns="http://www.w3.org/2000/svg" xmlns:xlink="http://www.w3.org/1999/xlink" width="940" zoomAndPan="magnify" viewBox="0 0 705 591.000005" height="788" preserveAspectRatio="xMidYMid meet" version="1.0"><defs><g/><clipPath id="2b08321842"><path d="M 311 152 L 704.402344 152 L 704.402344 437 L 311 437 Z M 311 152 " clip-rule="nonzero"/></clipPath></defs><g fill="#d269e6" fill-opacity="1"><g transform="translate(1.552557, 436.926369)"><g><path d="M 255.921875 0 L 242.46875 -168.65625 L 240.75 -168.65625 L 182.453125 -1.71875 L 143.828125 -1.71875 L 85.53125 -168.65625 L 83.8125 -168.65625 L 70.359375 0 L 5.515625 0 L 31.046875 -284.546875 L 100.015625 -284.546875 L 163.140625 -120.375 L 226.265625 -284.546875 L 295.234375 -284.546875 L 320.765625 0 Z M 255.921875 0 "/></g></g></g><g clip-path="url(#2b08321842)"><g fill="#d269e6" fill-opacity="1"><g transform="translate(316.794088, 436.926369)"><g><path d="M 239.015625 0 L 193.5 -159.6875 L 147.96875 0 L 75.875 0 L -5.171875 -284.546875 L 66.90625 -284.546875 L 115.546875 -89.328125 L 117.265625 -89.328125 L 169 -284.546875 L 217.984375 -284.546875 L 269.71875 -89.328125 L 271.4375 -89.328125 L 320.078125 -284.546875 L 391.8125 -284.546875 L 310.765625 0 Z M 239.015625 0 "/></g></g></g></g></svg>