<svg xmlns="http://www.w3.org/2000/svg" xmlns:xlink="http://www.w3.org/1999/xlink" width="940" zoomAndPan="magnify" viewBox="0 0 705 591.000005" height="788" preserveAspectRatio="xMidYMid meet" version="1.0"><defs><g/></defs><g fill="#d269e6" fill-opacity="1"><g transform="translate(3.822466, 469.121906)"><g><path d="M 10.578125 -189.84375 C 10.578125 -244.695312 29.269531 -291.125 66.65625 -329.125 C 104.039062 -367.125 149.085938 -386.125 201.796875 -386.125 C 254.804688 -386.125 299.851562 -367.195312 336.9375 -329.34375 C 374.019531 -291.5 392.5625 -245 392.5625 -189.84375 C 392.5625 -134.375 374.328125 -87.71875 337.859375 -49.875 C 301.390625 -12.03125 256.035156 6.890625 201.796875 6.890625 C 146.328125 6.890625 100.585938 -11.875 64.578125 -49.40625 C 28.578125 -86.945312 10.578125 -133.757812 10.578125 -189.84375 Z M 103.890625 -189.84375 C 103.890625 -169.925781 106.953125 -151.769531 113.078125 -135.375 C 119.203125 -118.976562 129.925781 -105.109375 145.25 -93.765625 C 160.570312 -82.429688 179.421875 -76.765625 201.796875 -76.765625 C 233.972656 -76.765625 258.257812 -87.796875 274.65625 -109.859375 C 291.050781 -131.921875 299.25 -158.582031 299.25 -189.84375 C 299.25 -220.789062 290.894531 -247.375 274.1875 -269.59375 C 257.488281 -291.8125 233.359375 -302.921875 201.796875 -302.921875 C 170.535156 -302.921875 146.398438 -291.8125 129.390625 -269.59375 C 112.390625 -247.375 103.890625 -220.789062 103.890625 -189.84375 Z M 103.890625 -189.84375 "/></g></g></g><g fill="#d269e6" fill-opacity="1"><g transform="translate(392.248777, 469.121906)"><g><path d="M 167.328125 -386.125 C 187.859375 -386.125 207.925781 -383.132812 227.53125 -377.15625 C 247.144531 -371.1875 261.703125 -365.289062 271.203125 -359.46875 L 285 -350.265625 L 250.0625 -281.3125 C 247.300781 -283.15625 243.46875 -285.53125 238.5625 -288.4375 C 233.664062 -291.351562 224.472656 -295.257812 210.984375 -300.15625 C 197.503906 -305.0625 184.941406 -307.515625 173.296875 -307.515625 C 158.890625 -307.515625 147.78125 -304.453125 139.96875 -298.328125 C 132.15625 -292.203125 128.25 -283.925781 128.25 -273.5 C 128.25 -268.289062 130.085938 -263.460938 133.765625 -259.015625 C 137.441406 -254.578125 143.722656 -249.828125 152.609375 -244.765625 C 161.492188 -239.710938 169.304688 -235.65625 176.046875 -232.59375 C 182.796875 -229.53125 193.21875 -224.929688 207.3125 -218.796875 C 231.820312 -208.378906 252.734375 -194.207031 270.046875 -176.28125 C 287.367188 -158.351562 296.03125 -138.050781 296.03125 -115.375 C 296.03125 -93.613281 292.117188 -74.613281 284.296875 -58.375 C 276.484375 -42.132812 265.757812 -29.414062 252.125 -20.21875 C 238.488281 -11.03125 223.394531 -4.21875 206.84375 0.21875 C 190.300781 4.664062 172.378906 6.890625 153.078125 6.890625 C 136.523438 6.890625 120.28125 5.203125 104.34375 1.828125 C 88.40625 -1.535156 75.070312 -5.742188 64.34375 -10.796875 C 53.625 -15.859375 43.972656 -20.835938 35.390625 -25.734375 C 26.816406 -30.640625 20.535156 -34.78125 16.546875 -38.15625 L 10.578125 -43.203125 L 53.78125 -115.84375 C 57.457031 -112.769531 62.515625 -108.859375 68.953125 -104.109375 C 75.390625 -99.359375 86.800781 -93 103.1875 -85.03125 C 119.582031 -77.070312 134.066406 -73.09375 146.640625 -73.09375 C 183.109375 -73.09375 201.34375 -85.503906 201.34375 -110.328125 C 201.34375 -115.535156 200.035156 -120.359375 197.421875 -124.796875 C 194.816406 -129.242188 190.21875 -133.6875 183.625 -138.125 C 177.039062 -142.570312 171.222656 -146.097656 166.171875 -148.703125 C 161.117188 -151.304688 152.84375 -155.289062 141.34375 -160.65625 C 129.851562 -166.019531 121.351562 -170.082031 115.84375 -172.84375 C 92.851562 -184.175781 75.078125 -198.347656 62.515625 -215.359375 C 49.953125 -232.367188 43.671875 -250.675781 43.671875 -270.28125 C 43.671875 -304.300781 56.234375 -332.113281 81.359375 -353.71875 C 106.492188 -375.320312 135.148438 -386.125 167.328125 -386.125 Z M 167.328125 -386.125 "/></g></g></g></svg>