<?xml version="1.0" encoding="utf-8"?>
<!-- Generator: Adobe Illustrator 28.2.0, SVG Export Plug-In . SVG Version: 6.00 Build 0)  -->
<svg version="1.1" id="Layer_1" xmlns="http://www.w3.org/2000/svg" xmlns:xlink="http://www.w3.org/1999/xlink" x="0px" y="0px"
	 viewBox="0 0 44.06 32" style="enable-background:new 0 0 44.06 32;" xml:space="preserve">
<style type="text/css">
	.st0{fill:#C81455;}
	.st1{fill:#16A3C4;}
	.st2{fill:#88C31F;}
</style>
<g>
	<path class="st0" d="M11.54,15.56h10.8l0.07,5.7c0,4.15-0.67,6.83-2,8.03s-4.32,1.8-8.94,1.8c-4.24,0-7.05-0.8-8.43-2.4
		c-1.38-1.6-2.07-4.86-2.07-9.78C0.97,12.62,1.24,8.65,1.79,7C2.48,4.98,3.51,3.62,4.9,2.91s3.75-1.05,7.08-1.05
		c4.36,0,7.18,0.54,8.45,1.63c1.27,1.09,1.91,3.5,1.91,7.23h-4.71c-0.08-1.88-0.44-3.05-1.05-3.5c-0.62-0.46-2.17-0.68-4.65-0.68
		c-2.7,0-4.41,0.39-5.13,1.18c-0.73,0.79-1.09,2.63-1.09,5.53L5.7,16.13l0.04,3.68c0,2.85,0.36,4.66,1.08,5.44
		c0.72,0.78,2.38,1.17,5,1.17c2.54,0,4.16-0.33,4.84-0.99c0.69-0.66,1.03-2.22,1.03-4.67l0.02-1.18h-6.17V15.56z"/>
	<path class="st0" d="M35.47,7v23.84h-4.66V7h-7.08V2.12H42.8V7H35.47z"/>
</g>
</svg>
