<?xml version="1.0" encoding="utf-8"?>
<!-- Generator: Adobe Illustrator 28.2.0, SVG Export Plug-In . SVG Version: 6.00 Build 0)  -->
<svg version="1.1" id="Layer_1" xmlns="http://www.w3.org/2000/svg" xmlns:xlink="http://www.w3.org/1999/xlink" x="0px" y="0px"
	 viewBox="0 0 44.06 32" style="enable-background:new 0 0 44.06 32;" xml:space="preserve">
<style type="text/css">
	.st0{fill:#C81455;}
	.st1{fill:#16A3C4;}
	.st2{fill:#88C31F;}
</style>
<g>
	<path class="st1" d="M16.89,25.1H7.01l-1.43,5.67H0.99L8.6,1.23h6.52l7.73,29.55h-4.51L16.89,25.1z M15.88,20.97L11.92,5.58
		L8.03,20.97H15.88z"/>
	<path class="st1" d="M24.83,30.77V1.23h9.22h1.14c3.1,0,5.18,0.7,6.26,2.09c1.08,1.39,1.62,4.08,1.62,8.06
		c0,3.95-0.51,6.58-1.54,7.88c-1.03,1.3-3.11,1.95-6.24,1.95l-1.01,0.02h-5.11v9.55H24.83z M29.17,16.51h4.95
		c1.97,0,3.22-0.29,3.75-0.88c0.53-0.58,0.8-1.97,0.8-4.15c0-2.5-0.22-4.04-0.66-4.64c-0.44-0.6-1.59-0.9-3.45-0.9h-5.38V16.51z"/>
</g>
</svg>
