<?xml version="1.0" encoding="utf-8"?>
<!-- Generator: Adobe Illustrator 28.2.0, SVG Export Plug-In . SVG Version: 6.00 Build 0)  -->
<svg version="1.1" id="Layer_1" xmlns="http://www.w3.org/2000/svg" xmlns:xlink="http://www.w3.org/1999/xlink" x="0px" y="0px"
	 viewBox="0 0 44.06 32" style="enable-background:new 0 0 44.06 32;" xml:space="preserve">
<style type="text/css">
	.st0{fill:#C81455;}
	.st1{fill:#16A3C4;}
	.st2{fill:#88C31F;}
</style>
<g>
	<path class="st2" d="M22.16,2.38l-8.43,17.35v10.71H9.41V19.72L1.21,2.38h5l3.43,7.4c0.19,0.41,0.51,1.17,0.97,2.28l0.48,1.13
		l0.47,1.13h0.12l0.48-1.13l0.48-1.13c0.41-1.01,0.74-1.77,0.98-2.28l3.47-7.4H22.16z"/>
	<path class="st2" d="M33.51,2.13c4.13,0,6.8,0.85,7.98,2.54c1.19,1.69,1.78,5.48,1.78,11.35c0,6.43-0.6,10.47-1.79,12.15
		c-1.19,1.67-4.09,2.51-8.68,2.51c-4.13,0-6.81-0.83-8.02-2.48c-1.21-1.65-1.82-5.28-1.82-10.9c0-6.69,0.59-10.89,1.78-12.6
		C25.95,2.99,28.87,2.13,33.51,2.13z M33.18,6.69c-2.9,0-4.6,0.46-5.08,1.38c-0.49,0.92-0.73,4.1-0.73,9.54
		c0,4.03,0.29,6.45,0.86,7.27c0.57,0.82,2.26,1.23,5.06,1.23c2.68,0,4.28-0.46,4.82-1.39c0.53-0.93,0.8-3.73,0.8-8.42
		c0-4.7-0.25-7.48-0.76-8.33S35.98,6.69,33.18,6.69z"/>
</g>
</svg>
