<?xml version="1.0" encoding="utf-8"?>
<!-- Generator: Adobe Illustrator 28.2.0, SVG Export Plug-In . SVG Version: 6.00 Build 0)  -->
<svg version="1.1" id="Layer_1" xmlns="http://www.w3.org/2000/svg" xmlns:xlink="http://www.w3.org/1999/xlink" x="0px" y="0px"
	 viewBox="0 0 44.06 32" style="enable-background:new 0 0 44.06 32;" xml:space="preserve">
<style type="text/css">
	.st0{fill:#C81455;}
	.st1{fill:#16A3C4;}
	.st2{fill:#88C31F;}
</style>
<g>
	<path class="st1" d="M18.31,1.3h4.71L15.46,30.7H8.62L1.12,1.3h4.62l4.4,16.65c0.41,1.59,1.03,4.26,1.84,8.01h0.12l0.45-2
		c0.55-2.5,1.02-4.49,1.41-5.99L18.31,1.3z"/>
	<path class="st1" d="M42.37,9.87h-4.35C38,9.6,37.99,9.4,37.99,9.27c-0.1-1.65-0.4-2.69-0.88-3.11c-0.48-0.42-1.62-0.64-3.4-0.64
		c-2.11,0-3.49,0.24-4.13,0.73c-0.65,0.49-0.97,1.51-0.97,3.08c0,1.85,0.26,2.96,0.79,3.34c0.53,0.37,2.27,0.66,5.23,0.86
		c3.5,0.24,5.75,0.87,6.78,1.87c1.03,1.01,1.54,3.09,1.54,6.27c0,3.9-0.6,6.43-1.8,7.57c-1.2,1.14-3.86,1.71-7.96,1.71
		c-3.69,0-6.14-0.56-7.35-1.68s-1.81-3.39-1.81-6.8L24,21.39h4.33l0.02,0.62c0,2.05,0.29,3.31,0.86,3.77
		c0.57,0.46,2.14,0.69,4.69,0.69c1.99,0,3.27-0.27,3.82-0.8s0.83-1.76,0.83-3.68c0-1.42-0.21-2.37-0.63-2.83
		c-0.42-0.47-1.32-0.75-2.71-0.85l-2.46-0.19c-3.71-0.27-6.08-0.92-7.12-1.94c-1.03-1.02-1.55-3.21-1.55-6.57
		c0-3.43,0.62-5.72,1.87-6.86s3.73-1.71,7.45-1.71c3.53,0,5.91,0.52,7.13,1.57c1.23,1.05,1.84,3.09,1.84,6.14V9.87z"/>
</g>
</svg>
