<?xml version="1.0" encoding="utf-8"?>
<!-- Generator: Adobe Illustrator 28.2.0, SVG Export Plug-In . SVG Version: 6.00 Build 0)  -->
<svg version="1.1" id="Layer_1" xmlns="http://www.w3.org/2000/svg" xmlns:xlink="http://www.w3.org/1999/xlink" x="0px" y="0px"
	 viewBox="0 0 44.06 32" style="enable-background:new 0 0 44.06 32;" xml:space="preserve">
<style type="text/css">
	.st0{fill:#C81455;}
	.st1{fill:#16A3C4;}
	.st2{fill:#88C31F;}
</style>
<g>
	<path class="st2" d="M17.75,1.08h4.71L14.9,30.92H8.06L0.56,1.08h4.62l4.4,16.9c0.41,1.62,1.03,4.33,1.84,8.13h0.12l0.45-2.03
		c0.55-2.54,1.02-4.56,1.41-6.08L17.75,1.08z"/>
	<path class="st2" d="M24.4,30.92V1.08h11.53c2.71,0,4.55,0.55,5.53,1.65c0.98,1.1,1.47,3.17,1.47,6.22c0,3.69-1.15,5.86-3.46,6.52
		v0.11c2.68,0.53,4.02,2.89,4.02,7.11c0,3.05-0.52,5.18-1.55,6.41s-2.83,1.84-5.4,1.84H24.4z M28.86,13.61h5.45
		c1.76,0,2.89-0.25,3.38-0.74s0.73-1.64,0.73-3.43c0-2.39-1.07-3.59-3.2-3.59h-6.36V13.61z M28.86,26.16h4.88l1.56-0.04
		c1.5,0,2.49-0.27,2.96-0.81c0.48-0.54,0.71-1.68,0.71-3.41c0-1.81-0.25-2.94-0.75-3.41c-0.5-0.47-1.73-0.7-3.69-0.7h-5.69V26.16z"
		/>
</g>
</svg>
