<?xml version="1.0" encoding="utf-8"?>
<!-- Generator: Adobe Illustrator 28.2.0, SVG Export Plug-In . SVG Version: 6.00 Build 0)  -->
<svg version="1.1" id="Layer_1" xmlns="http://www.w3.org/2000/svg" xmlns:xlink="http://www.w3.org/1999/xlink" x="0px" y="0px"
	 viewBox="0 0 44.06 32" style="enable-background:new 0 0 44.06 32;" xml:space="preserve">
<style type="text/css">
	.st0{fill:#C81455;}
	.st1{fill:#16A3C4;}
	.st2{fill:#88C31F;}
</style>
<g>
	<path class="st1" d="M13.41,1.19v20.26c0,3.77-0.4,6.27-1.19,7.51c-0.79,1.23-2.4,1.85-4.82,1.85c-2.58,0-4.25-0.59-5.02-1.79
		c-0.77-1.19-1.15-3.79-1.15-7.81l0.04-2.17h3.37c0.05,1.09,0.08,1.91,0.08,2.45c0,0.52,0.01,1.14,0.04,1.87
		c0.05,1.78,0.95,2.67,2.68,2.67c1.04,0,1.7-0.32,2-0.96c0.29-0.64,0.44-2.08,0.44-4.31V1.19H13.41z"/>
	<path class="st1" d="M42.83,1.19l-4.97,29.36h-5.22l-2.59-15.06c-0.24-1.36-0.51-3.18-0.83-5.46l-0.26-1.81h-0.12l-0.27,1.83
		l-0.26,1.81c-0.19,1.22-0.39,2.44-0.61,3.66l-2.66,15.04h-5.16L15.05,1.19h3.6l2.68,16.11c0.16,1.03,0.37,2.46,0.61,4.28l0.29,2.15
		l0.27,2.15h0.12c0.14-0.95,0.25-1.66,0.33-2.15l0.33-2.13c0.17-1.12,0.41-2.54,0.72-4.28l2.86-16.13H31l2.79,16.13
		c0.24,1.38,0.47,2.8,0.7,4.28l0.31,2.13l0.33,2.15h0.11l0.3-2.15l0.29-2.15c0.24-1.74,0.45-3.17,0.64-4.3l2.75-16.09H42.83z"/>
</g>
</svg>
