<?xml version="1.0" encoding="utf-8"?>
<!-- Generator: Adobe Illustrator 28.2.0, SVG Export Plug-In . SVG Version: 6.00 Build 0)  -->
<svg version="1.1" id="Layer_1" xmlns="http://www.w3.org/2000/svg" xmlns:xlink="http://www.w3.org/1999/xlink" x="0px" y="0px"
	 viewBox="0 0 44.06 32" style="enable-background:new 0 0 44.06 32;" xml:space="preserve">
<style type="text/css">
	.st0{fill:#C81455;}
	.st1{fill:#16A3C4;}
	.st2{fill:#88C31F;}
</style>
<g>
	<path class="st1" d="M8.22,14.94h7.4v8.1c0,1.03-0.11,2.02-0.32,2.96c-0.21,0.95-0.59,1.78-1.12,2.5
		c-0.54,0.72-1.28,1.29-2.21,1.73c-0.93,0.43-2.12,0.65-3.57,0.65c-0.01,0-0.02,0.01-0.02,0.02c-1.49,0-2.7-0.22-3.64-0.66
		c-0.94-0.44-1.68-1.03-2.21-1.77c-0.53-0.74-0.9-1.61-1.1-2.6c-0.2-0.99-0.31-2.03-0.31-3.13V9.28c0-1.11,0.1-2.15,0.31-3.14
		C1.62,5.16,2,4.3,2.54,3.55c0.55-0.74,1.29-1.33,2.22-1.77s2.13-0.66,3.59-0.66L8.37,1.1c1.47,0,2.68,0.22,3.61,0.66
		c0.93,0.44,1.67,1.02,2.21,1.75c0.54,0.73,0.91,1.57,1.12,2.53c0.2,0.95,0.31,1.94,0.31,2.97v1.66h-4.68V9.03
		c0-0.43-0.03-0.86-0.09-1.29c-0.06-0.43-0.18-0.81-0.36-1.14C10.32,6.27,10.06,6,9.73,5.79c-0.34-0.2-0.79-0.3-1.35-0.3
		c-0.57,0-1.02,0.11-1.36,0.32c-0.34,0.22-0.6,0.5-0.78,0.85C6.06,7.01,5.94,7.41,5.89,7.87C5.83,8.33,5.81,8.8,5.81,9.3v13.42
		c0,0.47,0.02,0.94,0.07,1.39c0.05,0.46,0.16,0.86,0.34,1.22c0.18,0.36,0.43,0.64,0.77,0.86s0.8,0.32,1.39,0.32
		c0.54,0,0.98-0.1,1.31-0.29c0.34-0.19,0.59-0.45,0.78-0.77c0.18-0.32,0.31-0.7,0.37-1.12c0.07-0.42,0.1-0.86,0.1-1.31v-3.76H8.22
		V14.94z"/>
	<path class="st1" d="M42.95,1.5l-3.89,29.01h-6.04l-2.6-21.64l-2.6,21.64h-6.04L17.89,1.5h4.72l2.35,22.19L27.5,1.5h5.84
		l2.53,22.19L38.22,1.5H42.95z"/>
</g>
</svg>
