<?xml version="1.0" encoding="utf-8"?>
<!-- Generator: Adobe Illustrator 28.2.0, SVG Export Plug-In . SVG Version: 6.00 Build 0)  -->
<svg version="1.1" id="Layer_1" xmlns="http://www.w3.org/2000/svg" xmlns:xlink="http://www.w3.org/1999/xlink" x="0px" y="0px"
	 viewBox="0 0 44.06 32" style="enable-background:new 0 0 44.06 32;" xml:space="preserve">
<style type="text/css">
	.st0{fill:#C81455;}
	.st1{fill:#16A3C4;}
	.st2{fill:#88C31F;}
</style>
<g>
	<path class="st0" d="M21.77,21.53c0,2.63-0.45,4.8-1.34,6.51c-1.07,2.03-3.55,3.05-7.46,3.05h-2.79c-3.29,0-5.59-0.82-6.9-2.47
		c-1.14-1.43-1.71-3.81-1.71-7.16V11.31c0-3.46,0.42-5.92,1.27-7.39C3.6,2.6,4.9,1.72,6.72,1.28c1.04-0.25,2.68-0.37,4.91-0.37
		c2.15,0,3.76,0.12,4.84,0.37c1.9,0.43,3.21,1.27,3.93,2.51c0.43,0.73,0.74,1.6,0.93,2.6c0.3,1.55,0.45,3.31,0.45,5.28V21.53z
		 M17.88,21.53V10.55c0-1.05-0.02-1.75-0.07-2.1c-0.3-2.08-1.11-3.21-2.44-3.39c-0.94-0.12-2.09-0.19-3.44-0.19h-1.36
		c-1.2,0-2.06,0.06-2.57,0.17c-0.97,0.22-1.62,0.7-1.97,1.43C5.62,7.36,5.42,8.66,5.42,10.4c0,0.31-0.01,0.48-0.04,0.52l0.04,10.36
		c0,1.33,0.09,2.34,0.26,3.05c0.09,0.33,0.28,0.82,0.58,1.45c0.26,0.57,0.77,0.96,1.53,1.15c0.46,0.12,1.23,0.19,2.33,0.19h2.98
		c1.22,0,2.02-0.05,2.4-0.15c0.69-0.17,1.22-0.53,1.56-1.08C17.6,25.03,17.88,23.57,17.88,21.53z"/>
	<path class="st0" d="M42.5,22.18c0,3.66-0.78,6.13-2.33,7.42c-0.79,0.66-2.01,1.09-3.65,1.3c-0.99,0.12-2.42,0.19-4.28,0.19h-0.99
		c-2.91,0-5.01-0.6-6.29-1.79C23.66,28.07,23,25.99,23,23.05c0.05-0.29,0.07-0.66,0.07-1.12V20.8H27v0.65
		c0,0.15-0.02,0.37-0.07,0.67c0,2.24,0.29,3.66,0.87,4.24c0.2,0.2,0.45,0.33,0.76,0.41c0.21,0.11,0.55,0.19,1.02,0.24
		c0.77,0.07,1.62,0.11,2.55,0.11h0.87c0.26,0,0.6,0.02,1,0.07c1.74,0,2.94-0.28,3.61-0.84c0.63-0.52,0.95-1.84,0.95-3.96v-0.87
		c0-1.41-0.21-2.36-0.63-2.83c-0.31-0.35-0.84-0.59-1.6-0.72c-0.17-0.03-0.94-0.1-2.29-0.22c-2.11,0-3.68-0.07-4.73-0.22
		c-1.91-0.27-3.33-0.82-4.26-1.64c-1.28-1.12-1.92-3.11-1.92-5.99c0-1.65,0.17-3.11,0.5-4.37c0.32-1.23,0.8-2.15,1.43-2.75
		c0.81-0.78,1.84-1.29,3.09-1.53c1.17-0.22,2.69-0.33,4.58-0.33c3.75,0,6.2,0.57,7.35,1.71c1.28,1.27,1.92,3.3,1.92,6.1v1.36h-3.89
		V9.43c0-1.09-0.02-1.85-0.07-2.27c-0.05-0.47-0.23-0.91-0.54-1.3c-0.35-0.46-0.79-0.74-1.32-0.84c-0.53-0.1-1.39-0.15-2.57-0.15
		h-1.56c-2.22,0-3.68,0.33-4.37,0.99c-0.41,0.38-0.61,1.48-0.61,3.27c0,0.86,0.08,1.66,0.24,2.4c0.15,0.68,0.44,1.17,0.87,1.45
		c0.74,0.48,2.05,0.73,3.93,0.73h1.6c3.19,0,5.41,0.51,6.66,1.53C41.79,16.38,42.5,18.69,42.5,22.18z"/>
</g>
</svg>
