<?xml version="1.0" encoding="utf-8"?>
<!-- Generator: Adobe Illustrator 28.2.0, SVG Export Plug-In . SVG Version: 6.00 Build 0)  -->
<svg version="1.1" id="Layer_1" xmlns="http://www.w3.org/2000/svg" xmlns:xlink="http://www.w3.org/1999/xlink" x="0px" y="0px"
	 viewBox="0 0 44.06 32" style="enable-background:new 0 0 44.06 32;" xml:space="preserve">
<style type="text/css">
	.st0{fill:#C81455;}
	.st1{fill:#16A3C4;}
	.st2{fill:#88C31F;}
</style>
<g>
	<path class="st1" d="M16.51,20.14h4.47v0.99c0,4.02-0.6,6.62-1.79,7.8c-1.19,1.18-3.83,1.77-7.91,1.77c-4.63,0-7.48-0.93-8.54-2.79
		c-1.07-1.86-1.6-6.84-1.6-14.94c0-4.77,0.72-7.9,2.17-9.41c1.44-1.5,4.46-2.25,9.06-2.25c3.35,0,5.58,0.62,6.7,1.85
		c1.12,1.23,1.68,3.69,1.68,7.35l0.02,0.66H16.3v-0.74c0-1.89-0.29-3.1-0.87-3.63C14.85,6.27,13.53,6,11.47,6
		C8.71,6,7.05,6.42,6.49,7.25s-0.83,3.3-0.83,7.41c0,5.53,0.25,8.8,0.75,9.82C6.91,25.49,8.52,26,11.25,26
		c2.21,0,3.65-0.28,4.31-0.85c0.66-0.56,0.99-1.81,0.99-3.72L16.51,20.14z"/>
	<path class="st1" d="M23.78,30.44V1.56h11.57c2.88,0,4.86,0.61,5.95,1.84c1.09,1.23,1.63,3.45,1.63,6.67
		c0,2.92-0.27,4.92-0.82,5.99c-0.54,1.07-1.66,1.81-3.34,2.22v0.19c2.6,0.2,3.9,2.07,3.9,5.61v6.37h-4.45v-5.27
		c0-2.98-1.19-4.47-3.58-4.47h-6.41v9.74H23.78z M28.23,16.09h6.39c1.52,0,2.54-0.33,3.03-1c0.5-0.67,0.75-2.01,0.75-4.03
		c0-2.06-0.21-3.39-0.64-3.99c-0.43-0.6-1.37-0.9-2.83-0.9h-6.7V16.09z"/>
</g>
</svg>
