<?xml version="1.0" encoding="utf-8"?>
<!-- Generator: Adobe Illustrator 28.2.0, SVG Export Plug-In . SVG Version: 6.00 Build 0)  -->
<svg version="1.1" id="Layer_1" xmlns="http://www.w3.org/2000/svg" xmlns:xlink="http://www.w3.org/1999/xlink" x="0px" y="0px"
	 viewBox="0 0 44.06 32" style="enable-background:new 0 0 44.06 32;" xml:space="preserve">
<style type="text/css">
	.st0{fill:#C81455;}
	.st1{fill:#16A3C4;}
	.st2{fill:#88C31F;}
</style>
<g>
	<path class="st1" d="M11.04,15.09h9.81l0.07,5.68c0,4.13-0.61,6.8-1.82,7.99c-1.21,1.19-3.92,1.79-8.12,1.79
		c-3.85,0-6.41-0.8-7.66-2.39c-1.25-1.59-1.88-4.84-1.88-9.74c0-6.26,0.25-10.21,0.75-11.86C2.81,4.55,3.75,3.2,5.01,2.5
		s3.41-1.05,6.43-1.05c3.96,0,6.52,0.54,7.67,1.62c1.15,1.08,1.73,3.48,1.73,7.19h-4.28c-0.08-1.87-0.4-3.03-0.96-3.49
		C15.06,6.33,13.65,6.1,11.4,6.1c-2.45,0-4,0.39-4.66,1.17c-0.66,0.78-0.99,2.62-0.99,5.51l-0.02,2.87l0.03,3.67
		c0,2.83,0.33,4.64,0.98,5.41c0.65,0.77,2.17,1.16,4.54,1.16c2.31,0,3.77-0.33,4.4-0.98c0.63-0.66,0.94-2.21,0.94-4.65l0.02-1.17
		h-5.6V15.09z"/>
	<path class="st1" d="M38.15,1.7h4.47L35.44,30.3h-6.5L21.83,1.7h4.39L30.4,17.9c0.39,1.55,0.97,4.15,1.75,7.79h0.11l0.42-1.95
		c0.52-2.43,0.97-4.37,1.34-5.82L38.15,1.7z"/>
</g>
</svg>
