<?xml version="1.0" encoding="utf-8"?>
<!-- Generator: Adobe Illustrator 28.2.0, SVG Export Plug-In . SVG Version: 6.00 Build 0)  -->
<svg version="1.1" id="Layer_1" xmlns="http://www.w3.org/2000/svg" xmlns:xlink="http://www.w3.org/1999/xlink" x="0px" y="0px"
	 viewBox="0 0 44.06 32" style="enable-background:new 0 0 44.06 32;" xml:space="preserve">
<style type="text/css">
	.st0{fill:#C81455;}
	.st1{fill:#16A3C4;}
	.st2{fill:#88C31F;}
</style>
<g>
	<path class="st2" d="M16,1.08h4.41v19.68c0,4.12-0.62,6.84-1.86,8.17c-1.24,1.33-3.78,1.99-7.61,1.99c-4.05,0-6.7-0.63-7.96-1.89
		c-1.26-1.26-1.89-3.91-1.89-7.95V1.08h4.4v20.01c0,2.18,0.31,3.57,0.92,4.15c0.61,0.59,2.05,0.88,4.32,0.88
		c2.32,0,3.78-0.3,4.38-0.89c0.6-0.59,0.89-2.04,0.89-4.36V1.08z"/>
	<path class="st2" d="M24.47,30.66V1.08h9.35h1.16c3.14,0,5.26,0.7,6.35,2.09c1.09,1.39,1.64,4.09,1.64,8.07
		c0,3.96-0.52,6.59-1.56,7.89c-1.04,1.3-3.15,1.95-6.33,1.95l-1.02,0.02h-5.19v9.56H24.47z M28.88,16.38h5.02
		c2,0,3.26-0.29,3.8-0.88c0.54-0.59,0.81-1.97,0.81-4.15c0-2.5-0.22-4.05-0.67-4.65c-0.45-0.6-1.61-0.9-3.49-0.9h-5.46V16.38z"/>
</g>
</svg>
